<?xml version="1.0" standalone="no"?>
<!DOCTYPE svg PUBLIC "-//W3C//DTD SVG 20010904//EN"
 "http://www.w3.org/TR/2001/REC-SVG-20010904/DTD/svg10.dtd">
<svg version="1.0" xmlns="http://www.w3.org/2000/svg"
 width="1600.000000pt" height="1600.000000pt" viewBox="0 0 1600.000000 1600.000000"
 preserveAspectRatio="xMidYMid meet">
<metadata>
Created by potrace 1.14, written by Peter Selinger 2001-2017
</metadata>
<g transform="translate(0.000000,1600.000000) scale(0.100000,-0.100000)"
fill="#000000" stroke="none">
<path d="M377 15892 c-15 -7 -27 -18 -27 -25 -6 -151 14 -617 35 -807 2 -19 6
-68 9 -109 4 -40 8 -76 10 -80 6 -8 19 -153 20 -208 1 -24 4 -43 8 -43 4 0 7
-8 6 -17 0 -19 10 -108 18 -158 3 -16 7 -43 8 -60 2 -16 7 -38 11 -47 4 -10 5
-23 2 -30 -2 -7 -1 -20 3 -28 5 -8 11 -37 14 -65 3 -27 9 -66 13 -85 4 -19 7
-47 7 -62 1 -16 4 -28 8 -28 4 0 7 -10 7 -22 -1 -13 2 -34 5 -48 4 -14 8 -36
10 -50 2 -14 9 -43 14 -65 6 -22 13 -57 16 -79 4 -21 8 -41 10 -45 5 -7 17
-82 19 -118 1 -13 6 -23 10 -23 5 0 7 -8 6 -17 -1 -10 1 -25 4 -33 4 -8 9 -26
11 -40 3 -14 10 -43 15 -65 5 -22 8 -41 6 -44 -3 -2 -1 -9 4 -15 5 -6 11 -24
14 -41 3 -16 8 -37 11 -45 5 -15 16 -62 20 -90 1 -9 5 -21 10 -28 4 -6 5 -12
1 -12 -3 0 -1 -8 4 -18 6 -11 12 -30 15 -43 3 -13 9 -39 15 -56 5 -18 7 -33 4
-33 -3 0 -1 -6 4 -12 6 -7 16 -38 24 -68 7 -30 14 -57 14 -60 1 -3 5 -12 8
-20 4 -8 8 -24 10 -35 2 -11 7 -28 12 -37 4 -10 8 -29 9 -43 0 -14 4 -25 7
-25 5 0 32 -81 34 -100 0 -3 3 -9 6 -15 3 -5 12 -32 19 -60 6 -27 18 -64 26
-82 8 -17 14 -38 14 -46 0 -9 4 -18 9 -21 9 -6 34 -88 29 -97 -2 -3 3 -13 10
-22 8 -9 11 -20 8 -26 -3 -5 -1 -11 4 -13 6 -2 12 -10 14 -18 3 -15 7 -26 29
-85 7 -16 12 -32 13 -35 2 -11 16 -46 25 -63 5 -10 7 -22 4 -27 -4 -6 -2 -10
3 -10 12 0 54 -109 46 -121 -3 -5 -1 -9 4 -9 12 0 34 -49 27 -60 -3 -5 0 -10
5 -12 6 -2 12 -10 14 -18 2 -8 17 -46 34 -83 18 -38 29 -73 26 -78 -3 -5 -1
-9 4 -9 10 0 45 -73 45 -95 0 -8 4 -15 8 -15 8 0 24 -40 21 -52 -1 -5 2 -8 7
-8 8 0 25 -49 21 -59 -1 -2 3 -7 8 -10 6 -3 12 -13 14 -21 2 -8 9 -21 16 -28
7 -8 10 -17 7 -22 -3 -5 -1 -12 5 -15 14 -9 72 -125 63 -125 -5 0 -3 -4 2 -8
17 -11 85 -148 78 -156 -3 -3 -1 -6 5 -6 7 0 12 -7 12 -15 0 -8 4 -15 8 -15 5
0 14 -12 21 -27 7 -16 38 -73 69 -128 31 -55 56 -103 54 -107 -1 -5 2 -8 6 -8
10 0 37 -50 34 -62 -1 -5 3 -8 9 -8 5 0 7 -4 4 -10 -3 -5 -2 -10 4 -10 11 0
77 -111 73 -122 -1 -5 3 -8 8 -8 6 0 15 -10 20 -22 11 -26 32 -60 41 -68 7 -7
143 -212 148 -225 2 -5 7 -12 10 -15 4 -3 34 -43 66 -90 33 -47 81 -113 108
-147 27 -35 45 -63 41 -63 -5 0 2 -7 14 -16 12 -8 20 -20 17 -25 -4 -5 -2 -9
3 -9 5 0 29 -26 53 -57 24 -32 54 -69 65 -83 12 -14 49 -59 83 -100 34 -41 68
-83 76 -92 78 -95 324 -353 506 -533 95 -93 217 -213 270 -265 53 -52 98 -95
101 -95 3 0 61 -52 129 -115 68 -63 150 -140 183 -170 33 -30 75 -69 93 -87
19 -18 49 -44 66 -59 18 -15 55 -47 83 -73 28 -25 119 -106 202 -180 84 -74
152 -139 152 -144 0 -6 3 -8 6 -4 4 3 45 -29 93 -71 48 -42 128 -113 179 -156
51 -44 92 -84 92 -88 0 -4 6 -8 13 -8 6 0 32 -19 58 -43 25 -23 72 -64 105
-92 32 -27 73 -61 89 -76 17 -15 64 -56 105 -91 42 -34 102 -86 135 -114 33
-28 134 -113 225 -188 91 -76 174 -147 185 -157 16 -15 118 -100 304 -254 14
-11 35 -30 48 -42 12 -12 29 -26 37 -30 8 -4 36 -27 63 -50 26 -23 145 -121
263 -218 118 -97 222 -185 232 -196 9 -10 19 -19 23 -19 4 0 64 -47 134 -106
182 -152 191 -159 249 -204 28 -23 52 -46 52 -51 0 -5 6 -9 13 -9 6 0 28 -15
48 -33 19 -17 52 -45 74 -61 21 -16 53 -44 72 -62 19 -18 36 -33 39 -33 3 1
24 -15 47 -35 49 -41 65 -54 146 -119 53 -43 77 -77 54 -77 -5 0 -8 -156 -9
-348 -1 -191 -4 -511 -7 -712 -3 -201 -6 -509 -7 -685 -1 -176 -4 -324 -7
-328 -3 -5 -5 -126 -5 -268 0 -142 -2 -259 -6 -259 -8 0 -8 -52 0 -66 3 -5 7
-22 9 -39 4 -39 87 -163 103 -152 6 4 126 -94 126 -104 0 -5 4 -8 8 -6 11 3
262 -193 262 -205 0 -4 6 -8 13 -8 8 0 34 -18 58 -41 24 -22 44 -39 45 -37 2
7 164 -126 164 -134 0 -5 4 -7 8 -4 4 3 25 -11 46 -30 20 -19 41 -34 46 -34 5
0 18 -11 29 -26 11 -14 22 -25 26 -24 6 1 27 -15 154 -116 42 -33 108 -84 145
-113 38 -30 76 -60 85 -67 84 -66 187 -147 234 -183 31 -24 57 -48 57 -53 0
-5 4 -7 8 -4 5 3 28 -13 51 -35 24 -21 46 -39 50 -39 3 0 17 -10 31 -23 14
-12 49 -40 78 -61 28 -21 52 -42 52 -47 0 -5 6 -9 13 -9 8 0 22 -9 31 -19 13
-14 26 -18 49 -14 18 2 37 5 44 5 16 2 57 77 61 113 2 17 8 32 13 33 5 2 7 8
4 12 -5 8 20 138 32 170 4 8 5 18 5 23 -1 4 3 28 9 55 39 172 70 319 75 356 3
22 10 48 15 58 5 10 7 18 3 18 -3 0 -1 6 5 13 6 8 8 16 6 19 -6 5 10 90 22
118 3 8 7 24 8 35 1 11 5 32 8 46 4 14 9 44 13 65 3 21 8 42 10 45 2 3 6 19 8
35 3 16 8 40 11 54 3 14 8 40 11 59 2 19 7 39 11 44 6 11 12 44 14 79 0 10 5
20 10 23 5 4 7 11 4 16 -4 5 -3 14 1 21 4 7 8 21 9 32 2 25 12 76 26 131 5 22
12 51 14 65 6 37 13 70 25 121 14 56 15 61 25 122 4 26 11 50 16 53 5 3 7 9 4
14 -3 5 0 30 6 57 6 26 13 57 15 68 3 11 10 47 16 80 6 33 16 63 22 67 6 4 29
7 51 7 22 -1 59 4 83 10 23 7 47 9 52 6 6 -3 10 -2 10 3 0 13 103 37 108 24 2
-6 10 -8 18 -5 8 3 14 0 14 -7 0 -6 4 -8 10 -5 5 3 10 1 10 -6 0 -7 3 -9 6 -6
4 3 16 1 28 -5 11 -7 26 -13 31 -14 13 -2 149 -67 155 -74 3 -3 14 -7 25 -8
11 -2 36 -12 55 -22 19 -11 59 -29 88 -41 28 -12 52 -26 52 -31 0 -5 4 -7 9
-4 10 7 123 -42 133 -58 4 -6 8 -7 8 -2 0 4 11 1 25 -8 13 -9 31 -16 40 -16 8
0 15 -4 15 -8 0 -5 6 -9 13 -9 6 0 52 -19 100 -42 75 -34 99 -41 152 -41 63 0
179 31 253 69 82 41 158 83 173 97 8 8 20 14 26 14 6 0 13 3 15 8 6 14 95 71
102 65 3 -3 6 -2 6 4 0 12 151 129 163 125 4 -1 7 2 7 6 0 8 162 150 176 155
4 1 32 27 64 57 366 355 573 568 708 730 96 116 173 214 206 262 22 32 43 58
48 58 5 0 7 4 4 8 -3 5 2 18 12 28 9 10 23 31 31 47 8 15 18 27 23 27 5 0 7 4
4 9 -3 5 2 19 12 32 25 34 91 173 98 207 1 8 6 21 10 30 10 23 13 47 18 116 2
46 -1 67 -16 92 -11 19 -17 38 -13 44 3 5 2 10 -3 10 -4 0 -19 24 -32 53 -12
28 -33 73 -46 99 -12 25 -20 49 -17 52 4 3 1 6 -5 6 -7 0 -12 5 -12 11 0 6
-10 32 -23 58 -13 25 -25 51 -27 56 -2 6 -27 61 -56 123 -30 63 -51 118 -48
123 3 5 2 9 -3 9 -4 0 -21 28 -36 63 -16 34 -40 83 -54 110 -13 26 -21 47 -17
47 3 0 1 6 -5 14 -13 15 -5 66 11 66 5 0 7 4 4 9 -4 5 -1 22 6 38 6 15 12 31
13 36 2 4 3 8 4 10 2 1 4 15 6 31 2 16 7 36 11 45 4 9 7 31 7 49 0 26 4 32 21
33 11 0 28 2 36 4 47 12 77 18 95 19 11 0 22 4 25 8 3 4 24 9 45 11 22 2 47 7
55 10 28 12 113 28 118 22 3 -2 11 0 18 6 8 6 21 9 29 5 8 -3 15 0 15 5 0 6 9
9 20 6 11 -3 22 -1 25 3 3 5 24 11 48 15 23 4 53 9 67 12 14 2 39 8 56 14 18
5 36 9 40 8 5 -1 16 0 24 4 8 3 33 9 55 13 22 4 47 9 55 11 8 2 24 5 35 7 11
2 40 8 64 15 23 7 49 10 57 7 7 -3 16 -2 18 3 7 11 114 34 126 26 5 -3 10 -1
10 5 0 6 8 10 18 8 9 -1 23 1 29 5 7 4 28 9 46 11 19 2 39 6 45 10 6 4 29 9
49 11 21 2 38 5 38 6 0 1 9 3 20 5 11 2 49 10 84 19 35 9 70 14 77 11 7 -3 14
-1 16 4 2 5 20 11 40 14 21 2 41 7 45 9 7 4 43 12 103 22 8 1 26 5 40 9 14 4
36 8 50 10 14 2 32 6 41 10 9 4 20 6 25 5 5 -1 11 0 14 1 17 6 49 12 73 14 15
0 27 4 27 9 0 4 10 7 21 7 20 0 35 3 134 29 45 12 101 64 107 98 3 22 -33 76
-120 180 -25 29 -42 53 -39 53 2 0 -13 19 -34 42 -21 23 -37 44 -35 45 2 2
-14 23 -35 46 -22 23 -42 50 -45 60 -3 9 -9 17 -13 17 -4 0 -23 21 -41 48 -19
26 -38 49 -42 50 -4 2 -8 10 -8 18 0 8 -3 14 -8 14 -7 0 -94 107 -91 112 1 2
-17 23 -39 48 -23 24 -40 46 -38 48 2 1 -8 15 -23 31 -25 27 -116 141 -156
197 -11 15 -25 32 -30 38 -6 6 -61 76 -123 156 -62 80 -127 162 -145 184 -17
21 -34 42 -36 48 -1 5 -18 26 -37 46 -19 20 -34 42 -34 49 0 6 -4 13 -9 15
-10 4 -103 118 -97 118 3 0 -6 12 -20 28 -40 43 -47 52 -118 144 -37 48 -80
95 -97 105 -16 9 -29 21 -29 26 0 4 -5 5 -10 2 -5 -3 -16 -3 -22 1 -24 15 -30
15 -493 7 -170 -2 -479 -7 -685 -10 -344 -6 -503 -8 -1267 -18 -145 -1 -263 0
-263 4 0 3 -20 29 -45 56 -24 28 -47 58 -50 68 -4 9 -10 17 -14 17 -8 0 -116
131 -116 141 0 4 -9 15 -21 25 -39 35 -114 131 -107 137 3 4 1 7 -5 7 -6 0
-32 26 -57 58 -25 31 -65 79 -87 105 -23 26 -48 58 -57 70 -8 12 -18 24 -21
27 -4 3 -73 86 -155 185 -81 99 -166 202 -189 229 -22 27 -47 58 -55 70 -8 12
-21 25 -28 29 -7 4 -13 15 -13 22 0 8 -4 15 -8 15 -5 0 -32 28 -61 63 -29 34
-71 84 -94 111 -23 27 -41 53 -39 58 1 4 -2 8 -7 8 -5 0 -32 28 -61 63 -28 34
-69 82 -90 107 -21 25 -39 48 -40 52 0 4 -15 22 -33 41 -63 66 -87 95 -87 106
0 6 -4 11 -8 11 -8 0 -48 45 -142 160 -19 23 -40 48 -46 54 -10 11 -157 182
-244 286 -25 29 -63 74 -85 98 -22 25 -39 49 -37 54 1 4 -2 8 -7 8 -5 0 -52
51 -105 113 -53 61 -107 123 -120 137 -13 14 -58 66 -101 115 -102 119 -126
147 -215 245 -41 45 -77 87 -79 92 -2 6 -19 24 -37 41 -19 16 -34 32 -34 36 0
3 -40 49 -90 101 -49 52 -90 98 -90 101 0 3 -45 52 -100 110 -55 57 -100 107
-100 111 0 4 -20 26 -45 49 -25 23 -45 45 -45 48 0 4 -35 43 -77 87 -43 44
-114 118 -157 165 -44 46 -145 152 -225 235 -80 83 -184 189 -230 237 -46 48
-87 87 -91 87 -3 0 -27 21 -52 48 -45 47 -155 148 -258 237 -30 26 -59 52 -65
59 -5 6 -72 60 -147 120 -76 60 -138 113 -138 118 0 4 -5 8 -10 8 -10 0 -177
122 -190 139 -3 3 -13 11 -22 16 -55 32 -248 170 -248 177 0 4 -3 7 -7 6 -12
-4 -83 42 -83 53 0 5 -3 8 -8 7 -11 -2 -62 24 -62 32 0 4 -8 10 -17 14 -30 10
-87 47 -100 64 -7 9 -13 12 -13 8 0 -9 -72 33 -82 48 -3 5 -12 10 -20 12 -16
2 -120 65 -130 79 -4 5 -8 7 -8 2 0 -4 -17 3 -37 16 -21 12 -55 31 -75 42 -21
11 -38 23 -38 28 0 4 -4 5 -10 2 -6 -3 -10 -1 -10 5 0 6 -4 9 -9 5 -5 -3 -17
2 -25 11 -9 8 -16 12 -16 8 0 -3 -6 -2 -13 4 -7 6 -64 36 -127 68 -63 31 -118
61 -122 68 -4 6 -8 7 -8 3 0 -4 -30 7 -67 26 -38 19 -87 43 -110 53 -24 10
-43 21 -43 24 0 4 -6 7 -12 7 -7 0 -33 9 -58 20 -79 36 -140 62 -145 62 -3 0
-20 8 -38 18 -17 9 -36 18 -42 19 -5 1 -31 11 -58 23 -26 11 -48 20 -50 19 -1
-1 -13 5 -27 12 -14 8 -29 15 -35 16 -5 1 -28 10 -50 19 -22 10 -45 19 -52 21
-33 6 -133 50 -133 57 0 5 -4 5 -10 2 -5 -3 -38 5 -72 19 -35 13 -82 30 -105
37 -24 7 -43 16 -43 21 0 6 -6 8 -13 5 -10 -3 -117 28 -167 50 -8 3 -19 7 -25
8 -29 7 -161 49 -170 54 -5 3 -19 7 -30 8 -11 2 -24 8 -29 13 -4 4 -15 6 -22
3 -8 -3 -14 -1 -14 4 0 5 -8 9 -17 10 -26 2 -75 13 -87 20 -5 4 -24 8 -40 10
-17 2 -32 7 -35 11 -4 4 -10 7 -16 7 -34 1 -95 18 -95 26 0 6 -4 7 -10 4 -5
-3 -15 -3 -22 1 -7 4 -25 9 -42 11 -16 2 -35 8 -43 14 -7 6 -13 9 -13 6 0 -3
-17 -1 -37 4 -21 5 -49 12 -63 15 -14 3 -63 14 -109 26 -94 23 -91 22 -146 32
-22 4 -47 10 -55 13 -8 3 -23 5 -32 4 -10 -1 -18 2 -18 8 0 6 -6 8 -14 5 -8
-3 -37 1 -64 10 -28 8 -53 12 -56 9 -3 -4 -6 -1 -6 6 0 7 -4 9 -10 6 -10 -6
-127 12 -144 22 -5 4 -23 7 -40 8 -54 4 -141 17 -150 23 -5 3 -23 7 -40 9 -17
2 -42 5 -56 7 -14 2 -52 7 -85 11 -33 4 -63 9 -66 11 -4 2 -33 6 -65 9 -33 3
-70 8 -84 12 -14 3 -37 5 -52 4 -16 -1 -28 1 -28 6 0 4 -21 9 -48 9 -54 2
-170 11 -222 19 -73 11 -175 19 -360 30 -63 4 -140 8 -170 10 -176 11 -337 9
-363 -3z m4911 -3512 c12 0 22 -5 22 -10 0 -5 7 -7 15 -4 8 4 23 3 33 -1 9 -4
24 -9 32 -10 42 -5 80 -18 80 -25 0 -5 7 -7 15 -4 8 4 15 1 15 -6 0 -6 4 -9 9
-6 11 7 71 -16 71 -27 0 -4 4 -6 9 -2 5 3 16 -2 25 -10 8 -9 18 -15 21 -14 12
2 65 -24 65 -32 0 -5 3 -8 8 -7 12 3 62 -24 62 -34 0 -4 6 -8 13 -8 7 0 30
-15 50 -34 20 -18 38 -31 40 -29 3 2 16 -10 30 -26 13 -16 27 -28 29 -25 5 4
28 -20 111 -117 66 -76 212 -319 192 -319 -3 0 2 -11 11 -25 8 -13 13 -28 10
-34 -3 -5 -2 -11 3 -13 9 -3 53 -148 50 -165 -1 -5 0 -10 1 -13 2 -3 4 -18 5
-35 1 -16 5 -37 8 -45 8 -18 3 -271 -7 -355 -3 -33 -10 -61 -15 -63 -6 -2 -8
-9 -5 -16 3 -7 -1 -26 -7 -42 -7 -16 -11 -32 -11 -37 1 -4 -5 -24 -14 -45 -10
-20 -16 -40 -16 -44 1 -5 -2 -8 -6 -8 -4 0 -8 -9 -9 -21 -1 -11 -10 -33 -20
-47 -9 -15 -18 -33 -19 -40 -4 -23 -94 -160 -110 -166 -8 -3 -13 -10 -9 -15
16 -27 -305 -314 -351 -314 -8 0 -14 -4 -14 -8 0 -12 -169 -91 -180 -84 -6 3
-10 2 -10 -3 0 -8 -55 -25 -64 -19 -1 1 -10 -4 -19 -12 -9 -7 -23 -11 -31 -8
-8 3 -16 2 -18 -3 -3 -8 -42 -17 -123 -27 -78 -10 -305 -14 -305 -6 0 5 -14 8
-30 7 -35 -2 -166 23 -193 38 -10 5 -31 12 -45 14 -15 3 -37 12 -49 20 -13 8
-23 12 -23 9 0 -8 -84 36 -92 49 -4 6 -8 7 -8 3 0 -10 -30 6 -115 62 -93 61
-107 72 -198 166 -96 98 -94 95 -147 175 -72 110 -168 319 -155 339 3 5 1 11
-4 13 -5 1 -11 17 -14 35 -3 17 -7 35 -10 40 -28 46 -28 482 1 528 4 5 7 15 7
20 1 30 28 115 37 115 5 0 7 4 4 9 -8 12 14 71 26 71 5 0 7 4 3 9 -6 11 15 61
27 61 4 0 7 3 6 8 -4 13 13 52 23 52 5 0 9 6 9 14 0 30 129 192 223 281 56 52
105 95 109 95 5 0 18 8 29 19 11 10 37 27 57 37 20 11 43 25 50 32 12 11 21
14 38 11 4 0 10 4 13 9 10 15 121 63 132 57 5 -4 9 -1 9 6 0 7 3 9 7 6 3 -4
11 -3 17 2 12 10 55 22 91 24 11 1 23 5 26 10 3 4 29 9 58 12 29 2 56 6 59 9
2 3 77 4 166 1 89 -2 171 -5 184 -5z"/>
<path d="M14258 4575 c-6 -14 -16 -25 -21 -25 -6 0 -8 -3 -4 -6 6 -6 -91 -172
-120 -206 -12 -13 -12 -21 -2 -40 6 -13 15 -25 19 -28 16 -13 61 -80 54 -80
-5 0 -1 -5 9 -11 9 -6 15 -14 12 -20 -4 -5 -2 -9 3 -9 10 0 60 -71 64 -92 2
-7 8 -17 14 -23 19 -17 74 -122 67 -129 -4 -3 -2 -6 4 -6 10 0 79 -121 83
-145 1 -5 20 -47 41 -93 22 -46 37 -87 34 -92 -4 -6 -2 -10 3 -10 8 0 61 -130
63 -155 0 -5 4 -14 9 -20 4 -5 14 -30 21 -55 16 -56 14 -52 22 -70 18 -42 37
-104 32 -108 -3 -3 -1 -10 4 -16 7 -9 32 -94 46 -156 2 -8 13 -55 24 -103 12
-48 19 -92 16 -97 -4 -6 -2 -10 3 -10 5 0 13 -21 16 -47 4 -27 9 -55 11 -63 2
-13 7 -37 21 -125 2 -11 6 -38 9 -60 3 -22 8 -53 11 -70 2 -16 6 -48 9 -70 2
-22 7 -58 10 -80 3 -22 8 -73 10 -113 2 -39 7 -77 10 -83 4 -6 9 -161 10 -345
4 -306 2 -335 -13 -343 -22 -11 -626 -6 -646 6 -5 3 -43 7 -85 9 -42 2 -94 6
-116 9 -22 3 -58 7 -80 9 -36 4 -91 12 -150 20 -11 2 -20 4 -20 5 0 2 -46 8
-85 11 -8 1 -22 4 -30 7 -15 5 -58 12 -92 13 -10 1 -20 6 -23 11 -4 5 -10 7
-14 4 -5 -2 -39 2 -77 11 -38 8 -80 17 -94 20 -14 2 -32 7 -40 11 -8 3 -22 7
-30 8 -32 4 -126 28 -143 37 -10 5 -28 11 -40 13 -51 10 -107 28 -107 36 0 5
-7 6 -15 3 -8 -4 -15 -2 -15 2 0 5 -10 10 -23 11 -12 0 -35 7 -52 14 -16 6
-39 14 -50 16 -10 2 -23 9 -27 16 -4 6 -8 8 -8 4 0 -4 -10 -2 -22 5 -13 6 -31
13 -41 15 -10 2 -28 8 -40 15 -12 7 -28 13 -36 14 -8 2 -17 6 -20 11 -3 4 -13
9 -21 11 -29 5 -90 35 -90 44 0 5 -4 7 -10 3 -10 -6 -50 13 -62 30 -4 6 -8 7
-8 2 0 -17 -348 182 -358 205 -2 5 -8 8 -14 8 -14 0 -138 90 -138 101 0 5 -31
-10 -68 -34 -37 -23 -77 -47 -88 -54 -10 -7 -47 -28 -82 -48 -44 -25 -60 -40
-54 -48 39 -52 153 -191 186 -227 23 -25 66 -74 96 -109 79 -90 87 -98 180
-180 47 -41 90 -79 95 -85 6 -6 53 -45 105 -85 52 -41 101 -82 108 -90 7 -9
14 -14 15 -12 4 8 117 -72 117 -82 0 -6 3 -7 6 -4 6 5 58 -25 74 -43 3 -3 22
-13 43 -22 20 -10 37 -22 37 -28 0 -5 3 -9 8 -9 17 3 30 -2 50 -21 12 -11 23
-20 24 -19 8 5 48 -14 48 -22 0 -5 3 -8 8 -7 10 2 62 -24 62 -32 0 -4 6 -7 13
-7 6 0 60 -23 119 -52 59 -28 112 -51 118 -51 5 0 10 -4 10 -8 0 -5 6 -9 13
-9 6 0 30 -8 52 -18 22 -10 45 -19 50 -20 6 -2 28 -11 50 -20 22 -10 47 -19
56 -21 9 -2 51 -17 93 -33 42 -16 90 -33 106 -36 17 -4 30 -11 30 -15 0 -5 7
-7 15 -4 8 3 20 2 27 -2 7 -5 19 -9 26 -10 8 -2 21 -6 30 -10 22 -9 20 -9 70
-18 23 -4 42 -12 42 -17 0 -6 5 -7 10 -4 6 3 15 3 22 -1 7 -4 25 -9 42 -11 16
-2 34 -8 41 -13 7 -5 14 -8 17 -5 2 3 20 0 39 -6 19 -5 45 -12 59 -15 14 -2
32 -7 40 -11 8 -3 30 -7 49 -9 19 -2 38 -7 44 -13 5 -5 15 -7 22 -5 6 3 32 0
56 -6 24 -6 58 -13 74 -16 17 -3 41 -7 55 -9 14 -3 47 -7 74 -11 28 -3 54 -8
58 -10 5 -3 25 -8 46 -10 20 -2 48 -6 62 -8 14 -2 54 -6 90 -10 36 -4 81 -9
100 -13 52 -8 120 -13 168 -13 23 1 42 -3 42 -7 0 -4 28 -8 62 -8 35 0 122 -3
193 -7 259 -14 609 -8 627 10 5 5 11 29 14 53 5 51 4 492 -1 589 -2 36 -6 109
-8 162 -3 53 -8 101 -12 107 -3 6 -6 30 -6 53 0 91 -4 158 -10 158 -3 0 -7 16
-8 35 -3 58 -7 88 -14 120 -3 17 -9 52 -12 78 -2 27 -7 52 -9 55 -2 4 -6 30
-9 57 -3 28 -8 57 -11 65 -3 8 -7 33 -10 55 -3 22 -8 51 -11 65 -3 14 -7 37
-10 52 -2 15 -6 31 -9 36 -3 5 -8 27 -11 48 -9 57 -11 67 -19 86 -4 9 -5 21
-2 27 4 5 2 12 -3 15 -4 3 -12 25 -16 48 -8 44 -11 54 -15 63 -1 3 -3 8 -4 13
-1 4 -7 25 -14 46 -6 22 -9 43 -7 47 3 4 1 9 -4 11 -6 1 -12 14 -14 28 -2 14
-9 38 -15 53 -7 15 -11 31 -10 35 1 4 -4 20 -10 35 -7 16 -10 32 -7 37 3 5 1
10 -5 12 -5 1 -11 12 -13 23 -2 11 -7 28 -11 37 -4 9 -9 22 -10 30 -1 7 -10
30 -19 52 -9 21 -14 42 -11 47 3 5 0 9 -5 9 -6 0 -11 5 -11 11 0 7 -16 50 -37
97 -20 47 -36 92 -36 99 0 7 -4 13 -9 13 -4 0 -8 5 -8 11 0 7 -16 43 -35 80
-19 38 -35 71 -34 74 0 3 -16 34 -35 69 -20 36 -36 67 -36 70 0 4 -11 24 -25
46 -14 22 -23 40 -19 40 3 0 -2 7 -10 16 -9 8 -16 22 -16 30 0 8 -4 14 -8 14
-8 0 -36 51 -32 59 1 2 -2 7 -7 10 -18 12 -52 68 -46 75 3 3 2 6 -4 6 -5 0
-25 24 -43 53 -19 28 -49 70 -67 93 -18 23 -33 44 -33 48 0 3 -8 14 -17 24
-10 10 -55 63 -100 118 -81 99 -254 275 -348 355 -27 23 -52 45 -55 48 -3 3
-27 24 -55 46 -27 22 -64 54 -82 71 -17 18 -33 30 -36 28 -2 -2 -12 5 -22 16
-24 26 -33 25 -47 -5z"/>
</g>
</svg>
