<?xml version="1.0" standalone="no"?>
<!DOCTYPE svg PUBLIC "-//W3C//DTD SVG 20010904//EN"
 "http://www.w3.org/TR/2001/REC-SVG-20010904/DTD/svg10.dtd">
<svg version="1.0" xmlns="http://www.w3.org/2000/svg"
 width="130.000000pt" height="130.000000pt" viewBox="0 0 130.000000 130.000000"
 preserveAspectRatio="xMidYMid meet">
<metadata>
Created by potrace 1.14, written by Peter Selinger 2001-2017
</metadata>
<g transform="translate(0.000000,130.000000) scale(0.100000,-0.100000)"
fill="#000000" stroke="none">
<path d="M57 1279 c-9 -6 -17 -7 -17 -4 0 3 -8 1 -19 -4 -16 -9 -18 -22 -18
-86 1 -41 4 -75 8 -75 4 0 8 -8 8 -17 1 -39 5 -53 13 -53 5 0 6 -4 3 -10 -3
-5 1 -23 10 -40 8 -16 13 -30 10 -30 -2 0 11 -25 30 -55 20 -30 33 -55 30 -55
-7 0 27 -53 40 -62 5 -4 10 -11 10 -16 0 -20 134 -164 277 -299 15 -14 25 -29
22 -34 -3 -5 -2 -15 3 -22 4 -6 8 -15 9 -19 1 -5 2 -9 4 -10 2 -4 10 -40 12
-60 1 -10 6 -18 11 -18 4 0 6 -4 2 -9 -3 -5 -1 -12 5 -16 6 -4 8 -10 6 -14 -3
-4 7 -16 22 -27 14 -10 34 -27 44 -37 10 -9 21 -17 24 -17 4 0 17 -10 29 -22
49 -51 62 -58 82 -43 10 8 15 15 10 15 -4 0 -1 13 8 29 8 17 12 37 9 45 -4 9
-1 16 6 16 7 0 10 7 6 15 -3 8 -2 15 2 15 7 0 10 13 14 56 1 5 16 10 35 9 18
-1 33 3 33 8 0 6 3 7 7 4 3 -4 11 -2 18 3 8 7 18 3 33 -10 12 -11 26 -20 32
-20 5 0 10 -4 10 -10 0 -22 34 -8 70 29 l37 38 -36 34 c-38 35 -54 62 -43 73
11 11 10 76 -1 76 -17 0 7 21 29 25 11 2 20 4 22 5 1 2 7 4 12 5 6 1 12 4 15
5 3 1 8 3 13 4 4 1 17 7 30 14 12 7 22 10 22 7 0 -3 13 1 30 10 16 8 29 21 27
27 -3 17 -164 179 -179 182 -7 1 -17 4 -23 7 -5 4 -20 5 -32 4 -13 -1 -23 2
-23 6 0 4 -11 6 -25 4 -14 -1 -28 1 -30 6 -3 4 -14 6 -25 4 -13 -2 -45 22
-104 81 -47 46 -86 81 -86 78 0 -4 -11 6 -25 22 -14 16 -25 26 -25 22 0 -5 -8
0 -18 10 -10 9 -29 24 -42 32 -12 8 -28 20 -35 27 -7 7 -24 15 -38 18 -14 4
-28 13 -31 22 -3 8 -10 12 -15 9 -5 -3 -14 1 -21 9 -7 8 -16 13 -20 10 -4 -3
-13 2 -20 10 -6 7 -18 11 -26 8 -8 -3 -14 0 -14 7 0 7 -7 10 -15 6 -8 -3 -15
-1 -15 5 0 6 -4 7 -10 4 -6 -3 -10 -1 -10 5 0 6 -5 8 -10 5 -6 -4 -16 -2 -23
3 -7 5 -20 8 -29 7 -10 -2 -18 0 -18 4 0 4 -17 7 -37 6 -21 0 -45 3 -53 6 -9
4 -23 3 -33 -2z m471 -378 c1 -1 4 -1 7 -1 10 0 42 -35 38 -42 -2 -5 0 -8 6
-8 6 0 8 -7 5 -15 -4 -8 -2 -15 4 -15 6 0 9 -8 7 -17 -2 -10 -4 -18 -5 -18 -1
0 -3 -8 -5 -17 -3 -18 -45 -77 -45 -64 0 4 -6 4 -12 -1 -20 -12 -50 -11 -79 3
-15 7 -29 11 -32 7 -8 -7 -31 47 -28 65 1 6 -3 12 -8 12 -6 0 -3 19 6 45 8 25
21 45 28 45 7 0 15 6 18 13 3 8 20 12 48 11 24 -1 45 -2 47 -3z"/>
<path d="M1120 451 c0 -7 -4 -9 -10 -6 -5 3 -10 1 -10 -4 0 -6 -6 -11 -14 -11
-8 0 -21 -9 -30 -21 -13 -18 -12 -23 2 -40 9 -10 20 -19 25 -19 4 0 51 -43
104 -96 105 -107 113 -108 113 -16 0 52 -1 53 -72 125 -88 88 -108 104 -108
88z"/>
<path d="M1054 317 c-10 -12 -27 -32 -37 -45 l-19 -23 120 -119 c92 -92 125
-118 141 -115 35 6 41 14 41 50 0 28 -11 46 -62 101 -35 36 -86 90 -114 120
l-50 53 -20 -22z"/>
<path d="M919 256 c-19 -15 -39 -74 -32 -94 7 -17 63 -75 119 -122 46 -39 143
-35 151 6 1 7 -12 22 -29 35 -18 13 -69 61 -113 105 -65 65 -84 79 -96 70z"/>
</g>
</svg>
