<?xml version="1.0" standalone="no"?>
<!DOCTYPE svg PUBLIC "-//W3C//DTD SVG 20010904//EN"
 "http://www.w3.org/TR/2001/REC-SVG-20010904/DTD/svg10.dtd">
<svg version="1.0" xmlns="http://www.w3.org/2000/svg"
 width="2000.000000pt" height="2000.000000pt" viewBox="0 0 2000.000000 2000.000000"
 preserveAspectRatio="xMidYMid meet">
<metadata>
Created by potrace 1.14, written by Peter Selinger 2001-2017
</metadata>
<g transform="translate(0.000000,2000.000000) scale(0.100000,-0.100000)"
fill="#000000" stroke="none">
<path d="M2402 17899 c-9 -4 -20 -5 -23 -3 -4 2 -12 -3 -19 -11 -9 -11 -12
-55 -11 -153 3 -228 9 -360 16 -371 3 -6 6 -39 5 -73 0 -35 2 -85 5 -113 3
-27 9 -91 14 -140 5 -50 8 -106 7 -124 -1 -17 2 -35 7 -38 4 -3 7 -19 6 -37
-2 -17 0 -36 3 -41 3 -6 5 -29 5 -53 -1 -23 2 -42 7 -42 4 0 6 -18 4 -40 -2
-22 0 -40 3 -40 4 0 7 -15 7 -32 -1 -18 2 -40 5 -48 5 -13 16 -91 22 -161 1
-14 5 -31 9 -37 4 -7 6 -22 5 -35 -1 -12 1 -29 4 -37 3 -8 8 -33 11 -55 3 -22
11 -69 17 -105 6 -36 12 -77 13 -91 2 -14 5 -30 9 -35 3 -6 8 -28 10 -49 3
-22 10 -60 17 -84 6 -23 9 -49 6 -57 -3 -8 0 -14 5 -14 6 0 9 -9 6 -20 -3 -11
-2 -22 3 -25 6 -4 21 -74 25 -120 0 -5 4 -16 9 -23 4 -7 5 -16 2 -19 -3 -3 -1
-13 3 -22 9 -16 21 -67 25 -107 1 -11 6 -26 10 -33 4 -7 5 -15 2 -18 -3 -3 -2
-11 3 -17 5 -6 12 -27 15 -46 4 -19 8 -39 10 -45 18 -62 28 -102 31 -119 1
-12 7 -34 14 -49 6 -15 10 -31 9 -35 -1 -4 1 -14 5 -22 18 -46 28 -91 22 -100
-3 -5 -1 -10 6 -10 6 0 9 -8 6 -20 -3 -10 -1 -20 4 -22 5 -2 10 -12 12 -23 2
-11 7 -27 10 -35 4 -8 8 -24 10 -35 2 -11 7 -27 10 -35 6 -17 48 -150 52 -165
1 -5 5 -18 9 -27 4 -9 5 -21 2 -27 -3 -5 -2 -11 4 -13 5 -1 11 -12 13 -23 2
-11 9 -33 16 -49 6 -16 13 -39 14 -50 1 -12 8 -27 15 -35 7 -7 11 -20 8 -27
-3 -8 -1 -14 4 -14 4 0 12 -15 16 -32 10 -42 9 -40 17 -58 8 -18 54 -143 69
-185 5 -16 19 -49 29 -73 11 -24 17 -47 14 -52 -4 -6 -2 -10 4 -10 6 0 14 -12
17 -27 6 -25 18 -54 59 -148 8 -16 11 -33 9 -37 -3 -4 -1 -8 5 -8 5 0 15 -17
22 -37 6 -21 15 -42 19 -48 5 -5 10 -19 12 -30 1 -11 6 -22 9 -25 13 -10 79
-163 74 -170 -3 -5 -2 -10 3 -12 12 -5 81 -145 75 -152 -4 -3 -1 -6 6 -6 7 0
9 -4 6 -10 -3 -5 -2 -10 3 -10 10 0 38 -60 34 -72 -1 -5 2 -8 6 -8 5 0 21 -28
37 -62 16 -35 41 -83 56 -108 15 -25 29 -52 31 -60 2 -8 6 -17 9 -20 3 -3 21
-33 40 -66 19 -34 56 -99 83 -145 27 -46 54 -93 60 -104 6 -11 28 -46 49 -78
20 -31 37 -59 37 -61 0 -3 56 -88 125 -190 68 -102 123 -186 121 -186 -2 0 7
-12 20 -27 32 -38 124 -161 124 -167 0 -3 13 -19 30 -37 16 -18 27 -36 24 -41
-3 -4 -1 -8 4 -8 5 0 29 -26 53 -57 24 -32 54 -69 65 -83 12 -14 50 -59 84
-100 100 -121 141 -168 220 -252 41 -44 78 -85 82 -92 8 -14 410 -412 543
-537 165 -156 227 -214 295 -275 35 -33 89 -82 120 -111 30 -28 82 -75 115
-105 33 -29 81 -74 108 -100 26 -26 49 -46 50 -45 3 3 321 -278 374 -329 23
-23 44 -40 46 -38 2 3 22 -15 43 -38 21 -24 40 -42 42 -40 3 3 121 -98 175
-150 16 -16 32 -28 35 -28 4 0 30 -22 58 -48 28 -26 73 -65 100 -87 27 -22 58
-49 70 -60 11 -11 45 -40 75 -64 56 -46 100 -85 153 -135 17 -16 33 -29 36
-29 3 0 14 -8 25 -18 11 -10 48 -41 83 -69 34 -29 62 -56 62 -61 0 -5 6 -9 13
-9 6 0 38 -25 70 -54 32 -30 61 -55 63 -54 6 0 103 -83 151 -128 18 -18 33
-29 33 -25 0 3 4 1 8 -4 4 -6 37 -35 75 -64 37 -30 67 -58 67 -62 0 -4 8 -10
18 -13 9 -4 41 -28 69 -54 29 -26 67 -58 85 -72 18 -14 43 -35 55 -47 13 -12
29 -26 37 -30 7 -4 33 -25 57 -45 24 -21 70 -58 102 -84 31 -26 57 -50 57 -55
0 -5 5 -9 11 -9 6 0 28 -15 48 -32 21 -18 81 -69 135 -113 54 -44 107 -87 116
-95 10 -8 37 -31 60 -50 24 -19 62 -51 85 -70 91 -75 122 -101 173 -141 28
-24 52 -46 52 -51 0 -4 6 -8 14 -8 8 0 24 -12 36 -28 12 -15 23 -25 24 -22 1
3 24 -13 50 -35 27 -22 67 -56 91 -75 23 -19 60 -49 81 -67 22 -18 57 -46 79
-63 22 -17 45 -37 50 -43 6 -7 25 -23 43 -36 28 -20 32 -28 27 -50 -4 -14 -8
-183 -10 -376 -1 -192 -5 -503 -8 -690 -2 -187 -7 -500 -10 -695 -7 -562 -14
-843 -19 -873 -3 -15 -1 -30 3 -33 5 -3 9 -15 9 -26 0 -32 40 -110 70 -135 14
-12 91 -72 170 -133 80 -62 150 -118 156 -126 6 -8 16 -14 22 -14 6 0 20 -11
31 -26 11 -14 23 -26 28 -26 10 -1 68 -45 100 -75 13 -13 26 -23 29 -23 9 0
174 -133 174 -142 0 -4 4 -7 8 -5 4 1 26 -12 47 -30 79 -63 151 -119 228 -177
42 -32 77 -63 77 -67 0 -5 5 -9 11 -9 8 0 85 -56 109 -80 3 -3 34 -27 70 -54
36 -27 73 -57 82 -65 9 -9 35 -29 57 -45 23 -17 41 -33 41 -38 0 -4 6 -8 13
-8 6 0 31 -18 54 -39 23 -21 43 -37 45 -36 2 2 25 -15 50 -39 26 -24 49 -42
51 -40 2 2 21 -12 41 -31 21 -19 41 -35 45 -35 3 0 23 -15 44 -33 79 -67 91
-74 122 -70 17 2 35 5 42 5 16 2 57 77 61 113 2 16 7 32 10 35 4 3 8 23 10 45
2 22 8 45 13 51 5 6 6 13 3 17 -3 3 -1 21 5 39 6 18 13 51 16 73 4 22 8 48 11
57 3 9 7 27 9 40 14 70 28 135 32 148 3 8 7 29 9 45 2 17 7 37 10 45 4 8 8 33
10 54 2 22 9 45 14 51 5 7 8 14 5 16 -2 3 1 22 6 44 5 22 11 49 14 60 2 11 6
31 10 45 3 14 8 43 11 65 3 22 10 45 15 51 5 6 6 13 3 16 -3 3 0 26 7 49 7 24
13 51 14 59 6 46 19 108 27 130 6 14 12 45 14 69 2 25 7 47 11 50 5 3 9 15 9
26 1 11 4 34 8 50 4 17 9 46 12 65 2 19 8 44 11 55 4 11 8 27 9 35 2 8 5 29 8
45 3 17 6 33 7 37 0 4 5 22 10 40 6 18 12 47 14 63 3 17 7 42 11 57 3 15 5 30
5 33 0 2 5 19 10 37 5 18 12 49 15 68 3 19 8 42 11 50 3 8 7 24 8 35 2 11 6
31 9 45 4 14 9 43 12 65 3 21 7 42 9 45 2 4 28 8 57 9 29 2 65 4 81 5 15 0 27
5 27 10 0 4 9 6 20 3 10 -3 20 -1 22 3 2 5 15 10 30 12 15 2 30 7 34 11 13 13
40 7 90 -18 27 -14 64 -30 82 -36 17 -6 32 -15 32 -20 0 -5 3 -8 7 -7 10 2 37
-8 88 -31 22 -10 84 -38 138 -62 53 -23 97 -47 97 -51 0 -5 4 -7 9 -3 8 5 158
-60 171 -75 3 -3 13 -6 23 -8 9 -2 61 -24 115 -49 110 -53 109 -53 177 -53 53
0 80 4 105 13 120 42 146 51 149 48 2 -1 7 2 10 7 3 5 38 26 76 47 39 21 77
44 86 51 8 8 19 14 23 14 4 0 12 5 19 10 32 28 138 100 146 100 6 0 14 6 18
13 10 15 153 130 153 122 0 -3 14 10 31 30 18 20 33 34 36 32 2 -2 20 12 41
32 21 20 64 60 97 90 192 173 533 523 679 696 60 72 117 137 128 147 10 9 18
20 18 25 0 5 14 23 30 41 17 18 30 35 30 37 0 10 65 95 72 95 4 0 7 3 6 8 -3
10 35 72 44 72 4 0 8 6 8 14 0 8 7 21 15 30 9 8 15 17 14 18 -3 8 25 58 33 58
5 0 7 4 4 9 -3 5 5 25 18 44 13 19 22 37 20 40 -2 2 3 21 13 43 19 46 22 56
30 109 3 22 9 48 14 57 6 11 6 25 0 35 -10 18 -35 84 -36 93 -1 3 -11 24 -23
46 -11 23 -18 44 -15 48 4 3 1 6 -5 6 -7 0 -12 5 -12 12 0 11 -27 71 -76 169
-8 14 -11 29 -7 33 3 3 1 6 -6 6 -7 0 -10 4 -7 9 4 5 1 11 -4 13 -6 2 -12 13
-13 26 0 12 -4 22 -8 22 -8 0 -19 28 -18 44 0 5 -4 12 -11 16 -6 4 -12 13 -14
21 -1 8 -14 38 -29 67 -15 29 -25 57 -22 62 4 6 2 10 -3 10 -10 0 -65 113 -65
135 0 8 -4 15 -7 15 -8 0 -32 52 -32 67 0 4 -4 13 -9 20 -10 12 -2 63 10 63 4
0 8 11 9 24 1 13 7 37 13 52 6 16 13 39 15 51 1 13 6 33 10 45 4 13 7 33 5 46
-2 22 4 28 49 36 14 3 57 12 95 21 39 8 84 18 100 21 17 2 38 7 47 10 9 3 25
7 35 9 10 2 40 8 67 15 27 6 51 8 54 5 3 -2 10 -1 16 4 6 5 25 12 41 15 17 3
50 10 74 16 24 6 46 8 49 5 3 -2 10 -1 16 4 6 5 25 11 41 14 17 3 41 8 55 11
14 3 36 8 50 11 14 3 59 12 100 22 41 9 87 17 103 17 15 1 27 5 27 10 0 4 9 6
20 3 11 -3 23 -1 26 5 3 5 12 7 19 4 7 -2 16 -1 21 4 5 5 27 11 49 14 22 3 57
10 78 16 22 6 45 9 52 6 8 -3 15 -1 17 5 2 5 21 11 43 14 22 2 42 5 45 6 3 1
10 3 15 4 6 1 28 7 50 13 22 6 54 13 70 15 17 3 49 10 72 16 23 6 45 11 50 10
4 -1 10 0 13 1 11 4 46 12 65 15 11 1 27 5 35 8 8 3 29 8 45 11 17 2 37 7 45
10 8 3 33 8 55 12 22 3 47 7 55 9 8 1 23 6 33 10 9 4 23 5 31 2 8 -3 16 -2 18
3 2 5 19 11 38 13 19 2 42 7 50 10 8 3 29 8 46 10 55 8 98 40 118 88 14 34 14
35 -32 95 -133 173 -173 223 -182 229 -6 4 -8 11 -5 16 4 5 2 9 -3 9 -9 0 -98
108 -101 122 -1 4 -11 18 -24 31 -12 13 -32 37 -44 53 -81 104 -205 262 -218
275 -8 9 -15 21 -15 27 0 7 -3 12 -8 12 -7 0 -94 107 -91 112 1 2 -17 23 -40
48 -22 25 -41 48 -41 52 0 4 -16 24 -35 45 -19 21 -35 41 -35 44 0 4 -16 24
-35 45 -19 21 -35 43 -35 49 0 5 -9 16 -20 23 -11 7 -20 18 -20 26 0 8 -7 16
-15 20 -8 3 -15 12 -15 21 0 8 -4 15 -9 15 -4 0 -25 21 -44 48 -20 26 -40 52
-45 57 -4 6 -41 53 -82 105 -40 52 -100 127 -132 167 -32 39 -58 76 -58 82 0
6 -4 11 -8 11 -5 0 -23 20 -41 45 -40 55 -103 100 -156 109 -22 4 -71 6 -110
6 -66 -2 -242 -5 -1070 -17 -1443 -22 -1506 -22 -1500 -12 4 5 2 9 -4 9 -5 0
-31 26 -56 58 -26 31 -62 75 -80 97 -18 22 -34 44 -34 48 0 4 -14 19 -31 34
-17 14 -29 27 -27 30 3 2 -7 16 -22 31 -14 15 -60 69 -101 121 -41 51 -92 112
-112 134 -21 23 -38 45 -38 48 0 3 -12 20 -27 36 -57 62 -108 127 -105 135 1
4 -2 8 -8 8 -5 0 -35 33 -67 73 -32 39 -73 88 -90 107 -18 19 -33 38 -33 41 0
3 -22 30 -50 59 -27 30 -48 56 -46 57 1 2 -19 27 -46 56 -26 28 -48 56 -48 61
0 4 -11 17 -26 28 -14 11 -23 22 -21 25 3 2 -11 21 -32 42 -37 39 -42 44 -129
151 -29 36 -63 76 -75 90 -68 74 -127 149 -127 159 0 6 -4 11 -9 11 -4 0 -35
32 -67 71 -33 39 -64 77 -69 83 -6 6 -53 61 -104 121 -51 61 -113 133 -137
162 -25 29 -45 54 -45 57 -1 2 -29 35 -64 72 -35 38 -63 70 -61 71 1 1 -26 33
-60 70 -35 37 -62 68 -60 70 1 1 -28 35 -65 75 -37 40 -66 74 -64 76 2 2 -12
18 -31 34 -19 17 -33 33 -30 35 2 3 -13 21 -35 40 -21 19 -39 41 -39 47 0 6
-9 18 -20 26 -12 8 -50 50 -87 93 -36 44 -88 104 -117 134 -28 30 -55 62 -60
70 -5 9 -24 29 -42 45 -19 17 -34 34 -34 38 0 4 -15 23 -32 42 -34 34 -159
173 -200 220 -13 15 -67 73 -120 130 -54 57 -98 109 -98 116 0 6 -4 12 -8 12
-4 0 -59 55 -122 123 -171 185 -406 431 -487 511 -40 39 -73 73 -73 77 0 8
-171 179 -179 179 -4 0 -44 38 -90 85 -46 47 -86 85 -88 85 -6 0 -50 40 -130
116 -23 23 -44 39 -46 37 -3 -2 -19 13 -38 34 -18 21 -35 36 -37 34 -2 -1 -24
15 -48 38 -25 23 -48 41 -52 41 -4 0 -29 20 -56 44 -26 24 -49 44 -50 43 -2
-1 -19 12 -39 28 -20 17 -61 48 -92 69 -30 22 -55 43 -55 48 0 4 -7 8 -15 8
-9 0 -18 7 -21 15 -4 8 -11 15 -18 15 -10 0 -45 26 -88 64 -10 9 -21 16 -24
15 -9 -1 -74 45 -74 54 0 4 -5 7 -11 7 -12 0 -103 60 -107 72 -2 4 -8 8 -14 8
-6 0 -26 11 -44 25 -18 14 -36 25 -40 25 -4 0 -22 11 -40 25 -18 14 -36 25
-40 25 -4 0 -21 10 -38 23 -17 12 -48 31 -68 42 -21 11 -38 23 -38 27 0 5 -4
8 -9 8 -7 0 -43 19 -129 71 -15 8 -54 30 -87 48 -33 18 -63 37 -66 43 -3 5
-10 9 -15 9 -18 -1 -44 11 -44 20 0 6 -4 8 -8 5 -5 -3 -19 2 -30 10 -12 8 -86
47 -165 86 -78 38 -145 74 -148 80 -3 5 -8 9 -10 7 -8 -4 -49 12 -49 20 0 4
-6 8 -14 8 -22 0 -76 25 -76 35 0 5 -4 7 -9 3 -5 -3 -15 1 -23 8 -7 7 -17 13
-21 13 -18 1 -97 38 -97 46 0 5 -4 7 -9 3 -12 -7 -61 15 -61 27 0 5 -4 6 -10
3 -5 -3 -22 1 -37 9 -16 8 -43 20 -60 28 -18 7 -33 17 -33 21 0 5 -4 6 -9 3
-5 -3 -33 5 -62 17 -57 25 -78 33 -94 37 -5 1 -19 7 -30 13 -11 6 -27 12 -35
14 -9 1 -34 10 -55 19 -22 10 -42 18 -45 19 -3 0 -18 5 -35 12 -43 16 -70 25
-70 22 0 -1 -11 4 -25 11 -14 8 -30 15 -36 16 -11 2 -121 38 -154 51 -8 3 -21
7 -28 9 -8 1 -21 6 -30 10 -9 4 -23 8 -30 10 -8 1 -21 6 -30 10 -9 4 -23 8
-30 10 -8 1 -21 6 -30 10 -20 9 -18 8 -62 18 -19 5 -39 11 -45 14 -5 4 -19 8
-30 9 -10 2 -22 7 -25 11 -3 4 -12 8 -20 9 -28 3 -74 14 -82 19 -4 3 -16 7
-25 9 -42 8 -118 30 -123 35 -3 3 -16 6 -30 8 -14 1 -32 5 -40 9 -8 3 -19 7
-25 7 -30 4 -122 30 -132 39 -7 5 -13 7 -13 4 0 -3 -17 -1 -37 4 -66 17 -130
31 -138 30 -2 0 -34 9 -70 19 -36 10 -65 17 -65 15 0 -3 -12 0 -27 6 -14 5
-38 11 -52 13 -64 9 -107 17 -121 23 -8 3 -26 7 -40 9 -14 2 -36 6 -50 10 -14
4 -28 7 -33 6 -4 -1 -26 3 -50 8 -23 6 -60 13 -82 16 -22 2 -47 7 -55 11 -8 3
-37 7 -65 10 -27 2 -52 7 -55 11 -3 4 -30 8 -60 10 -30 2 -60 7 -66 13 -6 5
-14 6 -17 3 -3 -3 -39 0 -79 7 -40 7 -77 12 -82 10 -5 -1 -16 1 -25 5 -9 3
-32 7 -51 9 -61 5 -154 15 -195 22 -22 4 -44 6 -49 4 -5 -1 -16 1 -25 5 -9 3
-36 7 -61 9 -25 1 -76 6 -115 9 -38 4 -89 6 -112 6 -24 -1 -43 3 -43 7 0 4
-35 9 -78 10 -42 1 -126 4 -187 7 -199 9 -356 11 -373 5z m4838 -3518 c0 -3
15 -6 32 -6 47 0 168 -27 168 -37 0 -5 4 -7 9 -4 5 4 22 1 38 -6 15 -6 30 -12
33 -12 29 -7 100 -41 100 -47 0 -5 3 -8 8 -7 12 4 72 -24 72 -33 0 -5 3 -8 8
-7 12 3 62 -24 62 -34 0 -4 7 -8 15 -8 9 0 18 -7 21 -15 4 -8 11 -15 16 -15
39 0 298 -268 298 -309 0 -6 3 -11 8 -11 9 0 49 -71 44 -78 -2 -3 0 -8 5 -11
14 -10 45 -71 36 -71 -4 0 -3 -4 3 -8 16 -10 45 -82 38 -93 -3 -5 -1 -9 4 -9
9 0 33 -70 37 -108 1 -9 4 -24 8 -32 17 -41 34 -376 20 -410 -3 -8 -5 -29 -4
-46 1 -18 -2 -35 -7 -38 -6 -3 -8 -15 -5 -26 3 -11 0 -20 -6 -20 -5 0 -8 -6
-5 -13 3 -8 0 -27 -7 -43 -6 -16 -13 -40 -15 -53 -2 -13 -8 -29 -13 -34 -6 -6
-11 -19 -11 -29 0 -10 -4 -18 -8 -18 -5 0 -9 -7 -9 -15 0 -19 -34 -95 -43 -95
-4 0 -7 -6 -7 -14 0 -29 -122 -195 -208 -282 -87 -88 -224 -196 -268 -210 -12
-4 -27 -13 -35 -20 -7 -8 -17 -12 -22 -9 -5 3 -11 1 -15 -5 -12 -19 -182 -83
-196 -74 -5 3 -9 1 -9 -4 0 -12 -115 -36 -129 -28 -6 4 -11 3 -11 -2 0 -6 -14
-9 -31 -8 -16 1 -32 -1 -35 -5 -5 -9 -254 -10 -268 -1 -5 2 -29 6 -54 8 -52 3
-138 22 -165 36 -10 5 -30 12 -44 14 -34 6 -216 93 -225 108 -4 6 -8 7 -8 3 0
-12 -149 93 -166 117 -8 11 -14 16 -14 11 0 -5 -31 22 -70 60 -38 38 -70 74
-70 80 0 6 -9 16 -20 23 -12 7 -18 17 -15 22 3 6 2 10 -3 10 -20 0 -133 196
-167 290 -38 107 -44 127 -51 155 -3 17 -8 44 -9 60 -2 17 -4 30 -5 30 -24 0
-18 401 7 465 3 8 7 22 8 30 4 34 30 110 38 110 4 0 6 4 2 10 -6 10 42 132 57
141 5 3 9 9 9 13 -3 17 0 26 12 38 6 7 20 30 31 50 10 20 27 46 37 57 11 11
19 24 19 29 0 5 43 54 95 109 89 94 252 223 281 223 8 0 14 4 14 9 0 10 39 27
53 23 4 -1 7 2 7 7 0 8 104 56 125 56 6 1 19 6 30 12 23 12 86 28 99 25 4 -2
13 2 20 7 6 5 39 13 71 16 33 4 62 8 63 10 6 6 292 2 292 -4z"/>
<path d="M16236 6536 c-20 -36 -43 -72 -52 -80 -8 -9 -13 -16 -9 -16 3 0 -11
-25 -31 -57 -40 -63 -48 -89 -30 -96 16 -6 169 -236 222 -332 68 -126 124
-239 119 -243 -2 -2 3 -11 11 -19 8 -8 12 -19 9 -24 -4 -5 -3 -9 2 -9 6 0 55
-109 58 -130 0 -3 7 -16 15 -30 7 -14 13 -26 12 -28 -1 -1 5 -18 13 -38 8 -20
12 -40 9 -45 -3 -5 -1 -9 4 -9 11 0 33 -70 26 -82 -3 -4 -1 -8 4 -8 8 0 36
-77 48 -133 7 -30 10 -39 18 -59 4 -9 5 -22 1 -28 -3 -5 -1 -10 5 -10 6 0 10
-6 9 -12 -1 -7 1 -20 4 -28 14 -34 28 -101 22 -109 -3 -5 0 -11 5 -13 6 -2 12
-19 14 -38 2 -19 7 -43 11 -52 4 -9 4 -22 0 -28 -3 -5 -2 -10 2 -10 9 0 36
-132 47 -235 2 -16 7 -38 11 -48 4 -9 5 -29 3 -42 -3 -14 -1 -25 4 -25 6 0 8
-16 6 -35 -2 -19 0 -35 5 -35 5 0 8 -15 6 -32 -1 -18 1 -40 4 -48 3 -8 6 -22
6 -30 2 -69 10 -170 14 -178 7 -9 6 -4 11 -409 l3 -282 -26 -5 c-38 -8 -619 1
-633 10 -6 4 -35 7 -65 6 -29 0 -53 3 -53 6 0 4 -24 7 -52 8 -90 2 -203 14
-206 22 -1 5 -15 7 -31 6 -15 -1 -48 2 -72 7 -24 5 -66 12 -94 15 -27 3 -52
10 -53 15 -2 5 -8 7 -13 3 -11 -7 -120 15 -135 27 -6 5 -14 6 -17 3 -7 -7
-107 15 -123 27 -6 5 -14 6 -17 2 -4 -3 -13 -1 -20 5 -8 7 -16 10 -18 7 -3 -2
-23 1 -45 7 -21 6 -41 12 -44 13 -53 11 -110 31 -110 37 0 4 -7 5 -15 2 -8 -4
-15 -1 -15 6 0 6 -4 9 -8 6 -12 -7 -82 15 -82 26 0 5 -4 7 -10 3 -5 -3 -17 -2
-27 3 -10 5 -44 18 -77 28 -32 10 -64 23 -70 29 -6 7 -16 10 -22 8 -7 -2 -18
3 -27 11 -8 8 -17 12 -20 9 -4 -3 -18 2 -31 11 -14 9 -30 16 -36 16 -20 0
-280 132 -280 142 0 5 -4 7 -9 3 -5 -3 -16 2 -25 10 -8 9 -17 14 -19 13 -6 -5
-167 94 -167 103 0 5 -3 8 -7 7 -12 -4 -83 42 -83 53 0 5 -5 9 -11 9 -6 0 -25
10 -42 23 -32 22 -67 31 -67 17 0 -7 -96 -70 -107 -70 -4 0 -14 -6 -22 -14 -9
-8 -23 -16 -31 -18 -8 -2 -23 -11 -34 -21 -12 -10 -31 -20 -43 -23 -22 -6 -32
-29 -15 -36 10 -4 106 -118 99 -118 -3 0 7 -13 21 -28 38 -39 164 -180 198
-221 31 -38 107 -109 244 -229 88 -78 231 -185 345 -259 44 -28 87 -57 96 -65
9 -7 22 -14 29 -16 8 -2 34 -17 58 -33 23 -16 47 -29 53 -29 5 0 9 -5 9 -12 0
-6 3 -8 6 -5 6 6 130 -57 144 -72 3 -3 10 -7 15 -8 6 -1 51 -20 100 -43 123
-56 144 -66 188 -81 20 -7 37 -17 37 -21 0 -4 3 -7 8 -6 4 2 30 -5 57 -15 64
-24 80 -29 80 -26 0 1 11 -4 25 -11 14 -8 27 -15 30 -15 29 -3 100 -30 100
-37 0 -5 4 -7 8 -4 8 5 85 -15 122 -31 8 -3 21 -7 29 -9 62 -12 112 -28 117
-35 3 -5 9 -7 13 -4 5 2 23 0 42 -6 19 -6 45 -12 59 -15 14 -2 32 -7 40 -10 8
-3 29 -8 45 -11 17 -3 35 -9 41 -14 6 -5 13 -6 16 -3 3 3 32 -2 64 -10 33 -8
83 -17 112 -21 28 -4 52 -10 52 -13 0 -4 15 -7 33 -8 53 -2 141 -15 158 -25 9
-4 18 -6 21 -4 2 3 31 0 64 -5 32 -6 82 -12 109 -15 28 -3 70 -8 95 -12 67 -9
110 -12 163 -12 26 -1 47 -4 47 -8 0 -5 33 -8 73 -9 39 -1 126 -4 192 -7 221
-11 574 -7 611 7 6 2 15 33 19 68 9 77 10 438 1 528 -3 36 -8 119 -10 185 -3
66 -7 127 -10 135 -3 8 -8 58 -12 110 -9 130 -18 220 -28 268 -3 15 -8 43 -10
62 -2 19 -7 46 -10 60 -3 14 -8 41 -11 60 -2 19 -9 62 -15 94 -5 32 -7 62 -5
67 3 4 1 9 -4 11 -5 1 -12 21 -14 43 -3 22 -8 47 -11 55 -3 8 -8 29 -10 45 -3
17 -10 49 -16 73 -6 24 -8 47 -5 53 4 5 1 9 -6 9 -6 0 -9 8 -6 20 3 11 2 20
-3 20 -4 0 -11 17 -16 38 -4 20 -8 39 -9 42 -20 67 -29 102 -38 145 -2 6 -5
15 -9 20 -8 13 -20 74 -16 78 2 2 -3 11 -10 20 -8 9 -11 20 -8 26 3 5 2 11 -4
13 -5 1 -11 12 -13 23 -1 11 -6 26 -10 33 -5 6 -5 17 -2 22 3 6 2 10 -3 10 -7
0 -36 71 -37 90 0 3 -4 11 -8 18 -5 6 -6 16 -3 21 4 5 1 11 -4 13 -6 2 -12 10
-14 18 -1 8 -8 25 -14 38 -7 12 -10 27 -7 32 3 6 2 10 -3 10 -9 0 -28 39 -34
70 -2 8 -5 17 -8 20 -14 14 -80 162 -75 170 3 4 1 10 -4 12 -5 1 -30 43 -55
91 -26 49 -52 98 -60 110 -7 12 -33 56 -58 97 -24 41 -51 86 -59 99 -8 14 -21
33 -29 43 -8 10 -13 21 -12 25 2 3 -1 9 -6 12 -15 9 -102 130 -102 141 0 6 -3
10 -8 10 -7 0 -97 111 -97 120 0 3 -15 18 -33 34 -18 16 -31 30 -29 33 9 9
-302 303 -437 413 -10 8 -34 29 -52 46 -18 17 -35 30 -37 28 -2 -2 -12 5 -22
16 -10 11 -22 20 -26 20 -4 0 -24 -29 -43 -64z"/>
</g>
</svg>
